<mxfile host="app.diagrams.net" agent="Mozilla/5.0 (Windows NT 10.0; Win64; x64) AppleWebKit/537.36 (KHTML, like Gecko) Chrome/130.0.0.0 YaBrowser/24.12.0.0 Safari/537.36" version="26.0.6">
  <diagram name="Страница — 1" id="lk9FgLeAkIeRq8-sdHNB">
    <mxGraphModel dx="1434" dy="751" grid="1" gridSize="10" guides="1" tooltips="1" connect="1" arrows="1" fold="1" page="1" pageScale="1" pageWidth="827" pageHeight="1169" math="0" shadow="0">
      <root>
        <mxCell id="0" />
        <mxCell id="1" parent="0" />
        <mxCell id="b6MM1INwkP5vQKn6J7iQ-8" value="" style="edgeStyle=orthogonalEdgeStyle;rounded=0;orthogonalLoop=1;jettySize=auto;html=1;shape=flexArrow;fillColor=#FF3333;" edge="1" parent="1" source="b6MM1INwkP5vQKn6J7iQ-1" target="b6MM1INwkP5vQKn6J7iQ-2">
          <mxGeometry relative="1" as="geometry" />
        </mxCell>
        <mxCell id="b6MM1INwkP5vQKn6J7iQ-1" value="&lt;div&gt;&lt;span style=&quot;font-size: 12.573px;&quot;&gt;Genre&lt;/span&gt;&lt;/div&gt;&lt;div&gt;&lt;span style=&quot;font-size: 12.573px;&quot;&gt;-----&lt;/span&gt;&lt;/div&gt;&lt;div&gt;&lt;span style=&quot;font-size: 12.573px;&quot;&gt;id&lt;/span&gt;&lt;/div&gt;&lt;div&gt;&lt;span style=&quot;font-size: 12.573px;&quot;&gt;name&lt;/span&gt;&lt;/div&gt;" style="rounded=0;whiteSpace=wrap;html=1;" vertex="1" parent="1">
          <mxGeometry x="50" y="130" width="200" height="130" as="geometry" />
        </mxCell>
        <mxCell id="b6MM1INwkP5vQKn6J7iQ-9" value="" style="edgeStyle=orthogonalEdgeStyle;rounded=0;orthogonalLoop=1;jettySize=auto;html=1;shape=arrow;fillColor=#FF3333;" edge="1" parent="1" source="b6MM1INwkP5vQKn6J7iQ-2" target="b6MM1INwkP5vQKn6J7iQ-3">
          <mxGeometry relative="1" as="geometry" />
        </mxCell>
        <mxCell id="b6MM1INwkP5vQKn6J7iQ-2" value="&lt;div&gt;Artist&lt;/div&gt;&lt;div&gt;------&lt;/div&gt;&lt;div&gt;id&lt;/div&gt;&lt;div&gt;name&lt;/div&gt;&lt;div&gt;genre_id&lt;/div&gt;" style="rounded=0;whiteSpace=wrap;html=1;" vertex="1" parent="1">
          <mxGeometry x="300" y="130" width="190" height="130" as="geometry" />
        </mxCell>
        <mxCell id="b6MM1INwkP5vQKn6J7iQ-10" value="" style="edgeStyle=orthogonalEdgeStyle;rounded=0;orthogonalLoop=1;jettySize=auto;html=1;strokeColor=#FF0000;shape=arrow;entryX=0.55;entryY=0.008;entryDx=0;entryDy=0;entryPerimeter=0;" edge="1" parent="1" source="b6MM1INwkP5vQKn6J7iQ-3" target="b6MM1INwkP5vQKn6J7iQ-4">
          <mxGeometry relative="1" as="geometry" />
        </mxCell>
        <mxCell id="b6MM1INwkP5vQKn6J7iQ-3" value="&lt;div&gt;Album&lt;/div&gt;&lt;div&gt;-----&lt;/div&gt;&lt;div&gt;id&lt;/div&gt;&lt;div&gt;title&lt;/div&gt;&lt;div&gt;release_year&lt;/div&gt;&lt;div&gt;artist_id&lt;/div&gt;" style="rounded=0;whiteSpace=wrap;html=1;" vertex="1" parent="1">
          <mxGeometry x="580" y="130" width="200" height="130" as="geometry" />
        </mxCell>
        <mxCell id="b6MM1INwkP5vQKn6J7iQ-4" value="&lt;div&gt;Track&lt;/div&gt;&lt;div&gt;-----&lt;/div&gt;&lt;div&gt;id&lt;/div&gt;&lt;div&gt;title&lt;/div&gt;&lt;div&gt;duration&lt;/div&gt;&lt;div&gt;album_id&lt;/div&gt;" style="rounded=0;whiteSpace=wrap;html=1;" vertex="1" parent="1">
          <mxGeometry x="570" y="340" width="200" height="120" as="geometry" />
        </mxCell>
      </root>
    </mxGraphModel>
  </diagram>
</mxfile>
